# xmcd
#
# Track frame offsets:
#	182
#	14507
#	29437
#	44232
#	60662
#	71135
#	84280
#	96125
#	109405
#	125200
#	139802
#	155570
#	173140
#	190517
#	204120
#	218647
#	234735
#	249077
#	261985
#	280410
#
# Disc length: 3940 seconds
#
# Revision: 0
# Processed by: cddbd v1.5.2PL0 Copyright (c) Steve Scherf et al.
# Submitted via: audiograbber 1.83.01
#
DISCID=290f6214
DTITLE=Roto Noto - Fringe Benefits
DYEAR=1992
DGENRE=
TTITLE0=Homtown Girl -Jack Diamond
TTITLE1=Most Every Night -Lisa Logan
TTITLE2=Running In Circles -Michael Terry
TTITLE3=Let Him Go -Mannon
TTITLE4=All I Need Is You -Lynne And The Rebels
TTITLE5=Second Hand Love -Lone Star Oasis
TTITLE6=Highway To Your Heart -Wayne Sulliiman
TTITLE7=The Song Mma Sang -Wayne Sulliiman
TTITLE8=You Ain´t No Elvis Presley -Lindsay Thomas Morgan
TTITLE9=I Used To Know -Jenny Lee West
TTITLE10=All Your Love Is True -Ross Tonkin
TTITLE11=To Stand And Alex (Abitibi Canyon) -Lorraine White
TTITLE12=Old Fashioned Farmer -Barry Handcock
TTITLE13=Runaway -Danny Squire
TTITLE14=Where Is The Morning -Sammi Lee
TTITLE15=Savannah´s Song -Eddie Seville
TTITLE16=How Can You -Jerri Kelly
TTITLE17=Shiny Car -Larry Beaird
TTITLE18=Crazy Infatuation -Diane Raeside
TTITLE19=From Dallas To Denver -Michael Terry
EXTD=
EXTT0=
EXTT1=
EXTT2=
EXTT3=
EXTT4=
EXTT5=
EXTT6=
EXTT7=
EXTT8=
EXTT9=
EXTT10=
EXTT11=
EXTT12=
EXTT13=
EXTT14=
EXTT15=
EXTT16=
EXTT17=
EXTT18=
EXTT19=
PLAYORDER=
